<svg width="18" height="22" viewBox="0 0 18 22" fill="none" xmlns="http://www.w3.org/2000/svg">
<path d="M9 2C8.20435 2 7.44129 2.31607 6.87868 2.87868C6.31607 3.44129 6 4.20435 6 5V9C6 9.79565 6.31607 10.5587 6.87868 11.1213C7.44129 11.6839 8.20435 12 9 12C9.79565 12 10.5587 11.6839 11.1213 11.1213C11.6839 10.5587 12 9.79565 12 9V5C12 4.20435 11.6839 3.44129 11.1213 2.87868C10.5587 2.31607 9.79565 2 9 2ZM9 0C9.65661 0 10.3068 0.129329 10.9134 0.380602C11.52 0.631876 12.0712 1.00017 12.5355 1.46447C12.9998 1.92876 13.3681 2.47995 13.6194 3.08658C13.8707 3.69321 14 4.34339 14 5V9C14 10.3261 13.4732 11.5979 12.5355 12.5355C11.5979 13.4732 10.3261 14 9 14C7.67392 14 6.40215 13.4732 5.46447 12.5355C4.52678 11.5979 4 10.3261 4 9V5C4 3.67392 4.52678 2.40215 5.46447 1.46447C6.40215 0.526784 7.67392 0 9 0ZM0.0550003 10H2.07C2.31229 11.6648 3.14587 13.1867 4.41823 14.2873C5.6906 15.3879 7.31668 15.9936 8.999 15.9936C10.6813 15.9936 12.3074 15.3879 13.5798 14.2873C14.8521 13.1867 15.6857 11.6648 15.928 10H17.944C17.7166 12.0287 16.8066 13.9199 15.3632 15.3635C13.9198 16.8071 12.0287 17.7174 10 17.945V22H8V17.945C5.97114 17.7176 4.07978 16.8074 2.63618 15.3638C1.19257 13.9202 0.282413 12.0289 0.0550003 10Z" fill="white"/>
</svg>
