<svg width="19" height="20" viewBox="0 0 19 20" fill="none" xmlns="http://www.w3.org/2000/svg">
<path d="M12.828 5.75701L7.17198 11.414C7.07647 11.5063 7.00029 11.6166 6.94788 11.7386C6.89547 11.8606 6.86789 11.9918 6.86673 12.1246C6.86558 12.2574 6.89088 12.3891 6.94116 12.512C6.99144 12.6349 7.06569 12.7465 7.15959 12.8404C7.25348 12.9343 7.36513 13.0086 7.48803 13.0588C7.61092 13.1091 7.7426 13.1344 7.87538 13.1333C8.00816 13.1321 8.13938 13.1045 8.26139 13.0521C8.38339 12.9997 8.49374 12.9235 8.58598 12.828L14.243 7.17201C14.8056 6.60935 15.1217 5.84623 15.1217 5.05051C15.1217 4.25479 14.8056 3.49167 14.243 2.92901C13.6803 2.36635 12.9172 2.05026 12.1215 2.05026C11.3258 2.05026 10.5626 2.36635 9.99998 2.92901L4.34298 8.58601C3.86906 9.04814 3.49161 9.59977 3.23254 10.2089C2.97347 10.818 2.83793 11.4726 2.83378 12.1345C2.82963 12.7964 2.95696 13.4526 3.20838 14.0649C3.4598 14.6773 3.8303 15.2336 4.2984 15.7016C4.76649 16.1696 5.32286 16.5401 5.93524 16.7914C6.54761 17.0427 7.20379 17.17 7.86572 17.1657C8.52764 17.1615 9.18214 17.0258 9.79124 16.7667C10.4003 16.5075 10.9519 16.13 11.414 15.656L17.071 10L18.485 11.414L12.828 17.071C12.1779 17.7211 11.4062 18.2367 10.5569 18.5885C9.70758 18.9403 8.79728 19.1214 7.87798 19.1214C6.95868 19.1214 6.04838 18.9403 5.19906 18.5885C4.34974 18.2367 3.57802 17.7211 2.92798 17.071C2.27794 16.421 1.7623 15.6493 1.41049 14.7999C1.05869 13.9506 0.877625 13.0403 0.877625 12.121C0.877625 11.2017 1.05869 10.2914 1.41049 9.44209C1.7623 8.59277 2.27794 7.82105 2.92798 7.17101L8.58598 1.51501C9.52899 0.604219 10.792 0.100247 12.103 0.111639C13.414 0.123031 14.668 0.648876 15.5951 1.57592C16.5221 2.50296 17.048 3.75702 17.0594 5.068C17.0707 6.37899 16.5668 7.642 15.656 8.58501L9.99998 14.244C9.72132 14.5226 9.39051 14.7436 9.02644 14.8943C8.66237 15.0451 8.27217 15.1227 7.87813 15.1226C7.48408 15.1226 7.09391 15.0449 6.72987 14.8941C6.36584 14.7432 6.03508 14.5222 5.75648 14.2435C5.47788 13.9648 5.2569 13.634 5.10615 13.27C4.95539 12.9059 4.87783 12.5157 4.87787 12.1217C4.87792 11.7276 4.95558 11.3374 5.10642 10.9734C5.25725 10.6094 5.47832 10.2786 5.75698 10L11.414 4.34301L12.828 5.75701Z" fill="white"/>
</svg>
